<svg width="40" height="38" viewBox="0 0 40 38" fill="none" xmlns="http://www.w3.org/2000/svg">
<path d="M39.1721 18.5745L20.998 0.413615C20.8671 0.2825 20.7117 0.178479 20.5406 0.107505C20.3695 0.0365321 20.1861 0 20.0008 0C19.8156 0 19.6322 0.0365321 19.4611 0.107505C19.2899 0.178479 19.1345 0.2825 19.0037 0.413615L0.829507 18.5745C0.300034 19.104 0 19.8232 0 20.5733C0 22.1308 1.26632 23.3971 2.82385 23.3971H4.73878V36.356C4.73878 37.137 5.36973 37.7679 6.15071 37.7679H17.177V27.8844H22.1187V37.7679H33.8509C34.6319 37.7679 35.2629 37.137 35.2629 36.356V23.3971H37.1778C37.9279 23.3971 38.6471 23.1015 39.1766 22.5676C40.2752 21.4646 40.2752 19.6776 39.1721 18.5745Z" fill="black"/>
</svg>
